<svg xmlns="http://www.w3.org/2000/svg" width="1028" height="1020" viewBox="0 0 1028 1020">
<g>
<path d="M 657.00 516.00 C657.00,692.00 656.66,781.00 656.00,781.00 C655.45,781.00 655.00,779.85 655.00,778.43 C655.00,777.02 654.49,774.91 653.86,773.75 C653.24,772.58 649.68,762.82 645.95,752.06 C638.53,730.65 629.97,706.19 616.19,667.00 C611.25,652.97 596.85,612.03 584.19,576.00 C571.52,539.97 559.10,504.73 556.59,497.68 L 552.03 484.85 L 552.01 367.93 L 551.98 251.00 L 657.00 251.00 ZM 393.27 778.52 C379.39,779.88 367.57,781.00 367.02,781.00 C366.33,781.00 366.04,694.66 366.11,515.75 C366.18,371.04 366.57,253.98 367.00,253.98 C367.00,253.98 367.00,253.98 367.01,254.00 C367.44,255.93 372.59,271.00 378.47,287.50 C384.35,304.00 391.10,323.12 393.48,330.00 C395.86,336.88 406.44,367.02 416.98,397.00 C427.53,426.98 438.59,458.48 441.57,467.00 C444.55,475.52 452.27,497.45 458.74,515.72 L 470.50 548.93 L 470.00 659.88 C469.73,720.91 469.20,771.13 468.84,771.50 C468.47,771.86 461.95,772.57 454.34,773.06 C439.80,774.00 434.11,774.51 393.27,778.52 Z" fill="rgb(168,13,22)"/>

<path d="M 646.00 780.32 C630.28,778.70 599.90,775.94 588.00,775.04 C553.64,772.46 550.71,772.14 549.42,770.83 C548.69,770.10 544.75,759.83 540.65,748.00 C533.13,726.31 524.73,702.51 505.89,649.50 C503.16,641.80 499.18,630.55 497.05,624.50 C494.92,618.45 490.41,605.62 487.03,596.00 C483.64,586.38 479.38,574.22 477.57,569.00 C474.84,561.14 444.70,475.66 433.84,445.00 C432.19,440.33 424.52,418.50 416.81,396.50 C391.81,325.18 389.26,317.92 378.43,287.50 C372.56,271.00 367.53,256.04 367.27,254.25 L 366.78 251.00 L 418.28 251.00 C464.71,251.00 469.85,251.16 470.40,252.61 C471.00,254.16 477.37,272.17 490.17,308.50 C493.46,317.85 497.44,329.10 499.00,333.50 C508.55,360.39 514.25,376.54 516.82,384.00 C518.43,388.67 525.03,407.35 531.47,425.50 C537.92,443.65 547.15,469.98 551.97,484.00 C556.79,498.02 571.20,539.20 583.98,575.50 C627.59,699.38 635.28,721.29 645.95,752.06 C649.68,762.82 653.24,772.58 653.86,773.75 C654.49,774.91 655.00,777.02 655.00,778.43 C655.00,781.17 654.76,781.22 646.00,780.32 Z" fill="rgb(226,19,27)"/>
</g>
</svg>